# MagicaVoxel @ Ephtracy

# group
g axe

# material
mtllib axe.mtl
usemtl palette

# normals
vn -1 0 0
vn 1 0 0
vn 0 0 1
vn 0 0 -1
vn 0 -1 0
vn 0 1 0

# texcoords
vt 0.0605469 0.5
vt 0.255859 0.5
vt 0.970703 0.5
vt 0.978516 0.5

# verts
v -2.5 9 0.5
v -2.5 9 -0.5
v -2.5 12 0.5
v -2.5 12 -0.5
v -0.5 0 0.5
v -0.5 0 -0.5
v -0.5 3 0.5
v -0.5 3 -0.5
v -0.5 9 1.5
v -0.5 9 0.5
v -0.5 9 -0.5
v -0.5 9 -1.5
v -0.5 12 1.5
v -0.5 12 0.5
v -0.5 12 -0.5
v -0.5 12 -1.5
v 0.5 0 0.5
v 0.5 0 -0.5
v 0.5 3 0.5
v 0.5 3 -0.5
v 0.5 9 0.5
v 0.5 9 -0.5
v 1.5 9 1.5
v 1.5 9 0.5
v 1.5 9 -0.5
v 1.5 9 -1.5
v 1.5 12 1.5
v 1.5 12 0.5
v 1.5 12 -0.5
v 1.5 12 -1.5
v 2.5 9 0.5
v 2.5 9 -0.5
v 2.5 12 0.5
v 2.5 12 -0.5
v -0.5 9 1.5
v -0.5 12 1.5
v 1.5 9 1.5
v 1.5 12 1.5
v -2.5 9 0.5
v -2.5 12 0.5
v -1.5 9 0.5
v -1.5 12 0.5
v -0.5 0 0.5
v -0.5 3 0.5
v -0.5 9 0.5
v -0.5 12 0.5
v 0.5 0 0.5
v 0.5 3 0.5
v 0.5 9 0.5
v 1.5 9 0.5
v 1.5 12 0.5
v 2.5 9 0.5
v 2.5 12 0.5
v -2.5 9 -0.5
v -2.5 12 -0.5
v -1.5 9 -0.5
v -1.5 12 -0.5
v -0.5 0 -0.5
v -0.5 3 -0.5
v -0.5 9 -0.5
v -0.5 12 -0.5
v 0.5 0 -0.5
v 0.5 3 -0.5
v 0.5 9 -0.5
v 1.5 9 -0.5
v 1.5 12 -0.5
v 2.5 9 -0.5
v 2.5 12 -0.5
v -0.5 9 -1.5
v -0.5 12 -1.5
v 1.5 9 -1.5
v 1.5 12 -1.5
v -0.5 0 0.5
v 0.5 0 0.5
v -0.5 0 -0.5
v 0.5 0 -0.5
v -0.5 9 1.5
v 1.5 9 1.5
v -2.5 9 0.5
v -1.5 9 0.5
v -0.5 9 0.5
v 0.5 9 0.5
v 1.5 9 0.5
v 2.5 9 0.5
v -2.5 9 -0.5
v -1.5 9 -0.5
v -0.5 9 -0.5
v 0.5 9 -0.5
v 1.5 9 -0.5
v 2.5 9 -0.5
v -0.5 9 -1.5
v 1.5 9 -1.5
v -0.5 12 1.5
v 1.5 12 1.5
v -2.5 12 0.5
v -1.5 12 0.5
v -0.5 12 0.5
v 0.5 12 0.5
v 1.5 12 0.5
v 2.5 12 0.5
v -2.5 12 -0.5
v -1.5 12 -0.5
v -0.5 12 -0.5
v 0.5 12 -0.5
v 1.5 12 -0.5
v 2.5 12 -0.5
v -0.5 12 -1.5
v 1.5 12 -1.5

# faces
f 3/3/1 2/3/1 1/3/1
f 4/3/1 2/3/1 3/3/1
f 7/2/1 6/2/1 5/2/1
f 8/2/1 6/2/1 7/2/1
f 10/1/1 8/1/1 7/1/1
f 11/1/1 8/1/1 10/1/1
f 13/4/1 10/4/1 9/4/1
f 14/4/1 10/4/1 13/4/1
f 15/4/1 12/4/1 11/4/1
f 16/4/1 12/4/1 15/4/1
f 17/2/2 18/2/2 19/2/2
f 19/2/2 18/2/2 20/2/2
f 19/1/2 20/1/2 21/1/2
f 21/1/2 20/1/2 22/1/2
f 23/4/2 24/4/2 27/4/2
f 27/4/2 24/4/2 28/4/2
f 25/4/2 26/4/2 29/4/2
f 29/4/2 26/4/2 30/4/2
f 31/4/2 32/4/2 33/4/2
f 33/4/2 32/4/2 34/4/2
f 37/4/3 36/4/3 35/4/3
f 38/4/3 36/4/3 37/4/3
f 41/3/3 40/3/3 39/3/3
f 42/3/3 40/3/3 41/3/3
f 45/4/3 42/4/3 41/4/3
f 46/4/3 42/4/3 45/4/3
f 47/2/3 44/2/3 43/2/3
f 48/1/3 45/1/3 44/1/3
f 48/2/3 44/2/3 47/2/3
f 49/1/3 45/1/3 48/1/3
f 52/4/3 51/4/3 50/4/3
f 53/4/3 51/4/3 52/4/3
f 54/3/4 55/3/4 56/3/4
f 56/3/4 55/3/4 57/3/4
f 56/4/4 57/4/4 60/4/4
f 60/4/4 57/4/4 61/4/4
f 58/2/4 59/2/4 62/2/4
f 59/1/4 60/1/4 63/1/4
f 62/2/4 59/2/4 63/2/4
f 63/1/4 60/1/4 64/1/4
f 65/4/4 66/4/4 67/4/4
f 67/4/4 66/4/4 68/4/4
f 69/4/4 70/4/4 71/4/4
f 71/4/4 70/4/4 72/4/4
f 75/2/5 74/2/5 73/2/5
f 76/2/5 74/2/5 75/2/5
f 81/4/5 78/4/5 77/4/5
f 82/4/5 78/4/5 81/4/5
f 83/4/5 78/4/5 82/4/5
f 85/3/5 80/3/5 79/3/5
f 86/4/5 81/4/5 80/4/5
f 86/3/5 80/3/5 85/3/5
f 87/4/5 81/4/5 86/4/5
f 88/4/5 84/4/5 83/4/5
f 88/4/5 83/4/5 82/4/5
f 89/4/5 84/4/5 88/4/5
f 90/4/5 84/4/5 89/4/5
f 91/4/5 89/4/5 88/4/5
f 91/4/5 88/4/5 87/4/5
f 92/4/5 89/4/5 91/4/5
f 93/4/6 94/4/6 97/4/6
f 97/4/6 94/4/6 98/4/6
f 98/4/6 94/4/6 99/4/6
f 95/3/6 96/3/6 101/3/6
f 96/4/6 97/4/6 102/4/6
f 101/3/6 96/3/6 102/3/6
f 97/1/6 98/1/6 103/1/6
f 102/4/6 97/4/6 103/4/6
f 99/4/6 100/4/6 104/4/6
f 103/1/6 98/1/6 104/1/6
f 98/4/6 99/4/6 104/4/6
f 104/4/6 100/4/6 105/4/6
f 105/4/6 100/4/6 106/4/6
f 104/4/6 105/4/6 107/4/6
f 103/4/6 104/4/6 107/4/6
f 107/4/6 105/4/6 108/4/6
